<?xml version="1.0" encoding="UTF-8" standalone="no"?>
<svg
   width="100%"
   height="100%"
   viewBox="0 0 311 208"
   version="1.1"
   xml:space="preserve"
   style="fill-rule:evenodd;clip-rule:evenodd;stroke-linejoin:round;stroke-miterlimit:1.41421;"
   id="svg44"
   sodipodi:docname="wren-file.svg"
   inkscape:version="1.2 (dc2aeda, 2022-05-15)"
   xmlns:inkscape="http://www.inkscape.org/namespaces/inkscape"
   xmlns:sodipodi="http://sodipodi.sourceforge.net/DTD/sodipodi-0.dtd"
   xmlns="http://www.w3.org/2000/svg"
   xmlns:svg="http://www.w3.org/2000/svg"><defs
     id="defs48" /><sodipodi:namedview
     id="namedview46"
     pagecolor="#ffffff"
     bordercolor="#000000"
     borderopacity="0.25"
     inkscape:showpageshadow="2"
     inkscape:pageopacity="0.0"
     inkscape:pagecheckerboard="0"
     inkscape:deskcolor="#d1d1d1"
     showgrid="false"
     inkscape:zoom="0.095883291"
     inkscape:cx="-1840.7795"
     inkscape:cy="1965.9317"
     inkscape:window-width="2056"
     inkscape:window-height="1261"
     inkscape:window-x="0"
     inkscape:window-y="40"
     inkscape:window-maximized="1"
     inkscape:current-layer="svg44" /><path
     d="M 46.065,63.694 C 45.797785,43.847408 36.431,27.511 33.688,23.309 30.946,19.106 0,12.835 0,12.835 4.634,7.809 32.235,12.69 32.235,12.69 c 0,0 8.83,-6.041 23.522,-10.862 14.692,-4.821 33.885,0.994 43.928,4.804 11.724,4.446 32.154,20.541 36.535,25.466 4.381,4.925 8.808,7.968 13.087,9.324 16.02,5.077 43.07,16.549 46.933,18.783 3.864,2.234 16.956,8.625 33.469,5.243 23.235,-4.758 74.185,-42.41 74.185,-42.41 0,0 -20.959,16.276 -15.886,15.175 5.073,-1.1 22.35,-10.006 22.35,-10.006 0,0 -9.292,7.542 -12.94,10.381 -0.593,0.349 -1.045,0.655 -1.296,0.897 -0.446,0.428 0.144,10e-4 1.296,-0.897 3.783,-2.222 13.318,-6.166 13.318,-6.166 L 281.727,51.777 297.999,47.5 c 0.382,-0.119 0.738,-0.213 1.067,-0.281 l -1.067,0.281 c -11.749,3.651 -47.408,30.571 -47.408,30.571 0,0 13.945,2.133 10.142,1.589 -3.803,-0.543 -15.568,13.148 -15.568,13.148 0,0 6.111,0.703 10.135,1.066 -6.757,1.966 -17.907,15.381 -17.907,15.381 l -3.776,10.838 c 13.364,10.006 13.367,20.798 13.367,20.798 -12.948,-8.828 -28.776,-8.665 -28.776,-8.665 -20.723,19.657 -42.522,25.807 -59.567,26.999 l 5.071,32.151 c 0,0 1.4,5.667 4.071,8.087 1.116,1.011 7.061,2.598 7.061,2.598 l 0.685,1.952 -9.179,-1.172 -4.232,-1.633 -4.428,0.856 -4.424,3.224 -4.092,-0.86 3.114,-2.596 -7.554,0.042 0.626,-1.362 5.26,-2.203 7.275,-3.762 1.894,-5.249 -8.006,-29.841 c -12.261,-0.023 -21.082,-2.37 -23.632,-2.893 -1.049,-0.216 -2.293,-0.411 -3.756,-0.677 l -8.284,29.589 c 0,0 3.864,7.503 9.462,10.394 2.34,1.208 12.477,5.42 12.477,5.42 l 1.716,2.553 -16.208,-3.158 -10.286,-1.434 -12.301,2.156 -19.716,6.008 -3.94,-0.873 15.149,-6.194 -10.278,2.288 0.905,-1.949 3.686,-3.328 3.173,-1.082 15.752,-5.604 6.624,-6.344 4.103,-30.36 C 108.906,151.642 98.302,146.851 83.607,135.789 75.649,129.797 69.14846,123.19759 64.129,116.201 56.590961,105.69378 46.306371,81.621111 46.065,63.694 Z"
     style="fill:#383838"
     id="path42"
     sodipodi:nodetypes="scccscscccccccccccccccccccccccccccccccccccccccccccccccccccccccccccss" /></svg>
