<?xml version="1.0" encoding="UTF-8" standalone="no"?>
<!-- Created with Inkscape (http://www.inkscape.org/) -->

<svg
   width="24"
   height="24"
   viewBox="0 0 6.3499999 6.35"
   version="1.1"
   id="svg1"
   inkscape:version="1.4.2 (2aeb623e1d, 2025-05-12)"
   sodipodi:docname="wren-file-light.svg"
   xml:space="preserve"
   inkscape:export-filename="../bd8fdc2d/icon.png"
   inkscape:export-xdpi="96"
   inkscape:export-ydpi="96"
   xmlns:inkscape="http://www.inkscape.org/namespaces/inkscape"
   xmlns:sodipodi="http://sodipodi.sourceforge.net/DTD/sodipodi-0.dtd"
   xmlns="http://www.w3.org/2000/svg"
   xmlns:svg="http://www.w3.org/2000/svg"><sodipodi:namedview
     id="namedview1"
     pagecolor="#505050"
     bordercolor="#eeeeee"
     borderopacity="1"
     inkscape:showpageshadow="false"
     inkscape:pageopacity="0"
     inkscape:pagecheckerboard="0"
     inkscape:deskcolor="#505050"
     inkscape:document-units="px"
     showborder="true"
     borderlayer="true"
     inkscape:zoom="46.886814"
     inkscape:cx="12.391544"
     inkscape:cy="12.850095"
     inkscape:window-width="2506"
     inkscape:window-height="1371"
     inkscape:window-x="0"
     inkscape:window-y="0"
     inkscape:window-maximized="1"
     inkscape:current-layer="layer1"
     showguides="true" /><defs
     id="defs1" /><g
     inkscape:label="Layer 1"
     inkscape:groupmode="layer"
     id="layer1"><path
       id="path2"
       style="fill:#957c3d;fill-opacity:1;stroke-width:0.0102308"
       d="M 5.477185 0.78548176 C 4.8388476 1.7853926 4.5930013 2.4148397 4.5930013 2.4148397 C 3.3925899 1.869198 1.9471894 1.2316493 1.0738363 2.3140706 C 0.71429777 2.3014076 0.10180257 2.5641846 0.10180257 2.5641846 C 0.10180257 2.5641846 0.69005611 2.6252847 1.0190592 2.7279988 C 1.3738079 3.1555114 1.1198351 3.5085947 1.5254883 4.277775 C 1.7709461 4.7432003 2.1204727 5.4354255 3.3382975 5.4239583 C 4.1243295 5.4165565 4.8092132 5.1616478 5.4658162 4.266923 C 4.075512 4.527851 3.4775038 4.8357862 2.2034831 3.9098388 C 3.1457202 4.4645876 4.419406 4.078654 6.2647338 3.9175903 C 5.8131956 3.4217314 5.3970155 2.9484916 4.8581014 2.5621175 C 5.0625258 2.4783161 5.4665373 2.8008852 5.7231648 3.0308227 C 5.5866441 2.5539326 5.2693633 2.3052536 5.8466715 1.0960571 C 5.8171363 0.99166456 5.5872258 0.81377468 5.477185 0.78548176 z M 1.9440674 2.3306071 A 0.18339822 0.17775519 0 0 1 2.1275187 2.508374 A 0.18339822 0.17775519 0 0 1 1.9440674 2.6861409 A 0.18339822 0.17775519 0 0 1 1.760616 2.508374 A 0.18339822 0.17775519 0 0 1 1.9440674 2.3306071 z " /></g></svg>
